<svg width="61" height="60" xmlns="http://www.w3.org/2000/svg" xmlns:xlink="http://www.w3.org/1999/xlink" xml:space="preserve" overflow="hidden"><g transform="translate(-345 -376)"><path d="M42.5 30C42.5 22.5806 36.9937 19.25 31.3387 16.25 36.9937 13.25 42.5 9.91938 42.5 2.5L41.25 2.5C41.2672 4.00269 40.9718 5.49256 40.3825 6.875L19.6175 6.875C19.0282 5.49256 18.7328 4.00269 18.75 2.5L17.5 2.5C17.5 9.91938 23.0063 13.25 28.6613 16.25 23.0063 19.25 17.5 22.5806 17.5 30 17.5 37.4194 23.0063 40.75 28.6613 43.75 23.0063 46.75 17.5 50.0806 17.5 57.5L18.75 57.5C18.7328 55.9973 19.0282 54.5074 19.6175 53.125L40.3825 53.125C40.9718 54.5074 41.2672 55.9973 41.25 57.5L42.5 57.5C42.5 50.0806 36.9937 46.75 31.3387 43.75 36.9937 40.75 42.5 37.4194 42.5 30ZM20.2563 8.125 39.7438 8.125C37.7319 11.4175 33.9594 13.4581 30 15.5431 26.0406 13.4581 22.2681 11.4175 20.2563 8.125ZM30 16.9569C33.9594 19.0419 37.7319 21.0819 39.7438 24.375L20.2563 24.375C22.2681 21.0825 26.0406 19.0419 30 16.9569ZM19.6175 25.625 40.3825 25.625C41.5392 28.427 41.5392 31.573 40.3825 34.375L19.6175 34.375C18.4608 31.573 18.4608 28.427 19.6175 25.625ZM39.7425 51.875 20.2563 51.875C22.2681 48.5825 26.0406 46.5419 30 44.4569 33.9594 46.5419 37.7319 48.5825 39.7438 51.875ZM30 43.0431C26.0406 40.9581 22.2681 38.9175 20.2563 35.625L39.7438 35.625C37.7319 38.9175 33.9594 40.9581 30 43.0431Z" fill="#FFFFFF" transform="matrix(1.01667 0 0 1 345 376)"/></g></svg>