<svg width="91" height="91" xmlns="http://www.w3.org/2000/svg" xmlns:xlink="http://www.w3.org/1999/xlink" xml:space="preserve" overflow="hidden"><g transform="translate(-854 -370)"><path d="M924.768 426.483C922.946 424.868 920.22 424.818 918.341 426.365L915.491 423.517C923.625 414.642 923.025 400.855 914.151 392.721 905.277 384.587 891.489 385.187 883.355 394.061 875.222 402.935 875.822 416.723 884.696 424.857 893.029 432.495 905.818 432.495 914.151 424.857L916.995 427.701C916.371 428.534 915.988 429.523 915.889 430.56 915.744 431.867 916.194 433.171 917.114 434.111L927.568 444.582C928.4 445.401 929.526 445.852 930.693 445.833 933.67 445.741 936.124 443.47 936.445 440.509 936.589 439.201 936.14 437.897 935.219 436.956ZM885.414 422.88C877.654 415.121 877.654 402.54 885.414 394.78 893.174 387.02 905.755 387.02 913.515 394.78 921.275 402.54 921.275 415.121 913.515 422.88 905.86 430.64 893.363 430.725 885.604 423.069 885.54 423.007 885.477 422.943 885.414 422.88ZM933.379 442.755C932.009 444.12 930.004 444.34 928.91 443.244L918.458 432.773C917.937 432.226 917.688 431.474 917.78 430.724 917.877 429.806 918.294 428.951 918.958 428.31 919.663 427.58 920.625 427.154 921.64 427.124 922.305 427.108 922.948 427.359 923.425 427.823L933.877 438.291C934.399 438.838 934.648 439.591 934.556 440.341 934.459 441.259 934.042 442.113 933.378 442.754Z" fill="#FFFFFF"/><path d="M899.5 414.552C904.735 414.552 908.979 410.308 908.979 405.073 908.979 399.838 904.735 395.594 899.5 395.594 894.265 395.594 890.021 399.838 890.021 405.073 890.021 410.308 894.265 414.552 899.5 414.552ZM899.5 397.49C903.688 397.49 907.083 400.885 907.083 405.073 907.083 409.261 903.688 412.656 899.5 412.656 895.312 412.656 891.917 409.261 891.917 405.073 891.92 400.886 895.313 397.493 899.5 397.49Z" fill="#FFFFFF"/><path d="M907.984 417.732C905.235 416.888 902.376 416.455 899.5 416.448 894.584 416.53 889.753 417.737 885.376 419.976 885.782 420.491 886.215 420.983 886.674 421.451 890.667 419.481 895.048 418.42 899.5 418.344 902.195 418.352 904.875 418.759 907.451 419.551 909.123 420.026 910.755 420.632 912.331 421.366 912.789 420.895 913.22 420.4 913.624 419.883 911.812 419 909.924 418.28 907.984 417.732Z" fill="#FFFFFF"/><path d="M922.25 392.036C925.915 392.051 928.873 395.034 928.859 398.698 928.846 401.746 926.759 404.394 923.798 405.117 923.893 405.746 923.956 406.382 924.003 407.022 928.619 406.08 931.598 401.573 930.656 396.957 929.713 392.34 925.207 389.362 920.591 390.304 919.373 390.552 918.225 391.064 917.226 391.802 917.666 392.26 918.091 392.729 918.491 393.214 919.594 392.447 920.906 392.035 922.25 392.036Z" fill="#FFFFFF"/><path d="M937.353 414.862C934.924 412.989 932.14 411.628 929.17 410.86 927.503 410.352 925.787 410.026 924.051 409.885 924.025 410.521 923.97 411.15 923.896 411.775 925.503 411.906 927.092 412.209 928.635 412.679 931.364 413.378 933.923 414.622 936.159 416.336 936.93 416.932 937.391 417.844 937.417 418.818L937.417 426.875 939.312 426.875 939.312 418.818C939.286 417.272 938.567 415.82 937.353 414.862Z" fill="#FFFFFF"/><path d="M876.75 392.036C878.076 392.036 879.371 392.437 880.466 393.185 880.867 392.699 881.293 392.23 881.735 391.772 877.92 389.015 872.592 389.873 869.835 393.688 867.079 397.503 867.937 402.831 871.752 405.588 872.701 406.274 873.782 406.757 874.927 407.007 874.974 406.368 875.039 405.733 875.134 405.103 871.582 404.202 869.433 400.592 870.334 397.04 871.079 394.103 873.72 392.043 876.75 392.036Z" fill="#FFFFFF"/><path d="M869.842 410.855C866.907 411.717 864.139 413.069 861.655 414.855 860.437 415.813 859.714 417.268 859.688 418.818L859.688 426.875 861.583 426.875 861.583 418.818C861.605 417.858 862.053 416.958 862.805 416.363 865.096 414.72 867.647 413.476 870.352 412.683 871.885 412.252 873.452 411.956 875.037 411.797 874.962 411.173 874.907 410.543 874.88 409.909 873.176 410.077 871.49 410.393 869.842 410.855Z" fill="#FFFFFF"/><path d="M882.438 431.856 882.438 438.018 884.333 438.018 884.333 431.856C884.354 430.896 884.802 429.995 885.555 429.399 885.617 429.354 885.687 429.314 885.745 429.269 885.203 428.904 884.677 428.511 884.164 428.104 883.087 429.057 882.46 430.419 882.438 431.856Z" fill="#FFFFFF"/></g></svg>