<svg xmlns="http://www.w3.org/2000/svg" xmlns:xlink="http://www.w3.org/1999/xlink" width="337.136" height="54.193" viewBox="0 0 337.136 54.193"><defs><clipPath id="a"><rect width="337.136" height="54.193" fill="#40a044"/></clipPath></defs><g clip-path="url(#a)"><path d="M76.58,44.269c-45.559-.3-64.152,17.4-64.152,17.4C35.636,44.9,49.94,56.253,76.58,44.269" transform="translate(-3.738 -13.189)" fill="#40a044"/><path d="M78.292,0C16.677,21.414,0,54.193,0,54.193,23.345,20.451,48.04,28.919,78.292,0" transform="translate(0 0)" fill="#40a044"/><path d="M123.588,8.419a24.573,24.573,0,0,0-.078-2.7,7.5,7.5,0,0,1,1.209-.326h7.013a1.662,1.662,0,0,1-.394.7c-.214.224-.661.248-1.582.248H124.9v6.731h6.46c.048.772-.658.952-1.425.952H124.9c0,3.072.031,5.048.08,6.95a3.314,3.314,0,0,1-1.029.2.33.33,0,0,1-.366-.375Z" transform="translate(-37.145 -1.607)" fill="#6b6d70"/><path d="M146.155,11.057c4.719,0,6.353,3.453,6.353,5.854a5.812,5.812,0,0,1-6.219,6.1c-4.747,0-6.277-3.324-6.277-5.977a5.724,5.724,0,0,1,2.349-4.7,6.231,6.231,0,0,1,3.766-1.277Zm-.076.951c-2.854.051-4.695,2.176-4.695,5.175a4.647,4.647,0,0,0,4.8,4.878c2.849,0,4.96-1.6,4.96-5.077a4.712,4.712,0,0,0-5.041-4.976Z" transform="translate(-42.108 -3.294)" fill="#6b6d70"/><path d="M164.225,12.368l-.687-.842v-.1a5.215,5.215,0,0,1,.946-.15c.157,0,.317.1.529.326.659.647,3.139,3.548,5.772,6.376.976,1.051,1.926,2.178,2.61,2.922-.076-1.146-.052-1.844-.052-3.072V11.85c0-.4.078-.475.344-.5a4.164,4.164,0,0,1,.867-.078c-.029.778-.05,1.829-.05,3.356v8.022a1.3,1.3,0,0,1-.66.227c-.211,0-.368-.127-.689-.5-1.212-1.4-3.5-3.847-5.772-6.424-.6-.722-1.317-1.6-2.109-2.478.107,2.152.107,3.1.107,4.055V22.3c0,.394-.131.447-.53.523a2.623,2.623,0,0,1-.682.051c.055-.777.055-1.827.055-3.35Z" transform="translate(-49.183 -3.358)" fill="#6b6d70"/><path d="M187.25,13.747c0-1.252-.05-1.577-.078-2.15a20.025,20.025,0,0,1,3.583-.326c5.96,0,7.092,3.479,7.092,5.628a5.321,5.321,0,0,1-2.265,4.678,8.7,8.7,0,0,1-4.773,1.349,15.311,15.311,0,0,1-3.559-.452Zm1.215,7.956a8.373,8.373,0,0,0,2.236.273c3.138,0,5.777-1.324,5.777-4.979,0-2.749-1.741-4.777-5.9-4.777-.79,0-1.608.1-2.108.148Z" transform="translate(-56.291 -3.358)" fill="#6b6d70"/><path d="M209.918,19.025c-.92,1.8-1.527,3.1-1.764,3.571-.1.23-.236.28-.343.28a2.894,2.894,0,0,1-.948-.1l-.053-.2c1.373-2.5,4.85-9.456,5.3-10.431l-.235-.648a2.154,2.154,0,0,1,.868-.227c.181,0,.289.078.55.675.739,1.776,2.425,5.579,3.27,7.275.765,1.653,1.4,2.829,1.636,3.252v.2a2.8,2.8,0,0,1-.95.2c-.208,0-.446-.18-.631-.6-.4-.853-.687-1.451-1.528-3.251Zm4.772-.949c-1-2.25-1.768-3.977-2.056-4.605-.9,1.876-1.394,2.932-2.185,4.605Z" transform="translate(-62.197 -3.358)" fill="#6b6d70"/><path d="M231.343,12.319h-3.817c-.346,0-.506-.149-.322-.421a2.528,2.528,0,0,1,.635-.627,15.543,15.543,0,0,0,2.791.1h6.352c-.027.249-.289.844-.55.944h-3.879v8.206c0,1.276.056,1.876.081,2.2a5.2,5.2,0,0,1-1,.151c-.21,0-.291-.1-.291-.3Z" transform="translate(-68.307 -3.358)" fill="#6b6d70"/><path d="M247.506,13.774c0-1.252-.03-2-.03-2.353a3.874,3.874,0,0,1,.9-.15c.262,0,.342.178.342,1v8.2c0,1.251.055,1.848.078,2.25a2.627,2.627,0,0,1-.871.151c-.236,0-.417-.051-.417-.38Z" transform="translate(-74.427 -3.358)" fill="#6b6d70"/><path d="M262.027,11.057c4.714,0,6.346,3.453,6.346,5.854a5.81,5.81,0,0,1-6.216,6.1c-4.748,0-6.275-3.324-6.275-5.977a5.725,5.725,0,0,1,2.347-4.7A6.252,6.252,0,0,1,262,11.057Zm-.08.951c-2.847.051-4.691,2.176-4.691,5.175a4.645,4.645,0,0,0,4.8,4.878c2.849,0,4.955-1.6,4.955-5.077a4.711,4.711,0,0,0-5.037-4.976Z" transform="translate(-76.955 -3.294)" fill="#6b6d70"/><path d="M280.087,12.368l-.682-.842v-.1a5.124,5.124,0,0,1,.948-.15c.159,0,.32.1.527.326.66.647,3.137,3.548,5.774,6.376.978,1.051,1.922,2.178,2.61,2.922-.081-1.146-.054-1.844-.054-3.072V11.85c0-.4.08-.475.342-.5a4.176,4.176,0,0,1,.871-.078c-.026.778-.052,1.829-.052,3.356v8.022a1.29,1.29,0,0,1-.659.227c-.211,0-.373-.127-.688-.5-1.208-1.4-3.5-3.847-5.765-6.424-.61-.722-1.319-1.6-2.112-2.478.107,2.152.107,3.1.107,4.055V22.3c0,.394-.131.447-.527.523a2.671,2.671,0,0,1-.686.051c.048-.777.048-1.827.048-3.35Z" transform="translate(-84.03 -3.358)" fill="#6b6d70"/><path d="M312.224,13.774c0-1.252-.025-2-.025-2.354a3.829,3.829,0,0,1,.9-.152c.266,0,.342.18.342,1v8.2c0,1.251.055,1.848.08,2.25a2.661,2.661,0,0,1-.873.151c-.234,0-.42-.051-.42-.381Z" transform="translate(-93.892 -3.357)" fill="#6b6d70"/><path d="M321.366,12.367l-.685-.846v-.1a5.046,5.046,0,0,1,.946-.152c.157,0,.32.1.529.329.659.647,3.137,3.548,5.77,6.378.98,1.049,1.928,2.176,2.614,2.92-.078-1.146-.055-1.844-.055-3.071V11.847c0-.4.081-.477.343-.5a4.19,4.19,0,0,1,.868-.078c-.022.78-.051,1.831-.051,3.355v8.025a1.294,1.294,0,0,1-.656.227c-.212,0-.371-.128-.692-.5-1.206-1.4-3.5-3.847-5.77-6.422-.6-.725-1.317-1.6-2.108-2.48.106,2.15.106,3.1.106,4.052V22.3c0,.4-.131.446-.527.523a2.567,2.567,0,0,1-.686.051c.052-.777.052-1.827.052-3.35Z" transform="translate(-96.443 -3.357)" fill="#6b6d70"/><path d="M345.99,11.055a4,4,0,0,1,2.347.652,1.426,1.426,0,0,1-.186.5.37.37,0,0,1-.524.152,4.268,4.268,0,0,0-1.659-.351c-1.083,0-2.008.547-2.008,1.75,0,1.173.924,1.774,2.685,3.077,1.454,1.051,2.243,1.774,2.243,3.1,0,2.25-2.081,3.073-3.689,3.073a4.771,4.771,0,0,1-2.5-.578.633.633,0,0,1-.261-.6.774.774,0,0,1,.208-.573,4.851,4.851,0,0,0,2.529.8c1.607,0,2.372-.873,2.372-2,0-1-.58-1.552-3.215-3.482a3.237,3.237,0,0,1-1.633-2.7c0-1.125.794-2.825,3.272-2.825Z" transform="translate(-102.986 -3.294)" fill="#6b6d70"/><path d="M360.294,12.318H356.47c-.343,0-.5-.149-.315-.425a2.623,2.623,0,0,1,.633-.626,15.75,15.75,0,0,0,2.792.1h6.356c-.028.254-.289.849-.557.948h-3.875v8.206c0,1.276.055,1.876.08,2.2a5.273,5.273,0,0,1-1,.151c-.213,0-.289-.1-.289-.3Z" transform="translate(-107.088 -3.357)" fill="#6b6d70"/><path d="M376.081,13.774c0-1.252-.027-2-.027-2.354a3.794,3.794,0,0,1,.892-.152c.267,0,.348.18.348,1v8.2c0,1.251.049,1.848.078,2.25a2.678,2.678,0,0,1-.869.151c-.238,0-.422-.051-.422-.381Z" transform="translate(-113.096 -3.357)" fill="#6b6d70"/><path d="M387.962,12.318h-3.821c-.348,0-.506-.149-.32-.425a2.668,2.668,0,0,1,.631-.626,15.806,15.806,0,0,0,2.8.1H393.6c-.025.254-.288.849-.553.948h-3.874v8.206c0,1.276.05,1.876.079,2.2a5.169,5.169,0,0,1-1,.151c-.21,0-.288-.1-.288-.3Z" transform="translate(-115.409 -3.357)" fill="#6b6d70"/><path d="M404.8,16.8c0,4.554,1.978,5.328,3.852,5.328,2.159,0,3.789-.972,3.789-5.43V11.848c0-.4.159-.478.4-.5a4.549,4.549,0,0,1,.924-.079c-.08.753-.106,1.832-.106,3.356v2.35c0,5.151-2.823,6.1-5.243,6.1-2.693,0-4.826-1.627-4.826-5.6V13.8c0-1.249-.024-1.978-.05-2.4a4.71,4.71,0,0,1,.946-.129c.262,0,.317.18.317,1.05Z" transform="translate(-121.361 -3.357)" fill="#6b6d70"/><path d="M427.952,12.318h-3.818c-.347,0-.5-.149-.314-.425a2.594,2.594,0,0,1,.628-.626,15.776,15.776,0,0,0,2.8.1H433.6c-.028.254-.3.849-.555.948h-3.874v8.206c0,1.276.053,1.876.08,2.2a5.185,5.185,0,0,1-1,.151c-.214,0-.294-.1-.294-.3Z" transform="translate(-127.438 -3.357)" fill="#6b6d70"/><path d="M451.036,13.746c0-1.252-.052-1.577-.079-2.15a19.985,19.985,0,0,1,3.585-.329c5.958,0,7.095,3.481,7.095,5.63a5.322,5.322,0,0,1-2.272,4.678,8.684,8.684,0,0,1-4.771,1.344,15.416,15.416,0,0,1-3.558-.445Zm1.213,7.954a8.322,8.322,0,0,0,2.24.274c3.139,0,5.775-1.324,5.775-4.979,0-2.75-1.743-4.777-5.9-4.777-.792,0-1.61.1-2.11.148Z" transform="translate(-135.623 -3.357)" fill="#6b6d70"/><path d="M472.451,13.987a22.09,22.09,0,0,0-.08-2.32,6.451,6.451,0,0,1,.946-.254H478.7c-.133.524-.341.75-.629.849a8.438,8.438,0,0,1-1.846.1h-2.56v4.084h4.772a1.109,1.109,0,0,1-1.264.946H473.66V21.77a10.174,10.174,0,0,0,2.268.194c.766,0,1.659,0,3.163-.071l.108.148a1.51,1.51,0,0,1-.686.727,8.631,8.631,0,0,1-2.165.151,27.919,27.919,0,0,1-3.582-.176l-.315-.377Z" transform="translate(-142.063 -3.4)" fill="#6b6d70"/><path d="M130.753,48.949a6.419,6.419,0,0,0-.15-1.5,20.986,20.986,0,0,1,2.563-.239c.294,0,.452.126.452.5v4.2a8.044,8.044,0,0,1-1.763,1,10.629,10.629,0,0,1-2.663.265c-3.449,0-7.261-1.517-7.261-5.984a5.662,5.662,0,0,1,2.473-4.741,8.568,8.568,0,0,1,4.861-1.337c2.448,0,4,.774,4.354,1.229a2.012,2.012,0,0,1-.551,1.1.678.678,0,0,1-.838.166,6.333,6.333,0,0,0-2.831-.623,4.047,4.047,0,0,0-4.351,4.2c0,2.807,2.254,4.16,4.526,4.16a3.036,3.036,0,0,0,1.182-.193Z" transform="translate(-36.67 -12.249)" fill="#40a044"/><path d="M147.6,42.1c0-.876,0-1.5-.061-2.345.7-.074,1.654-.2,2.679-.249h4.769c-.134,1.153-.441,1.523-.71,1.695a6.012,6.012,0,0,1-1.847.137h-1.966v2.853h4.3c-.432,1.743-.857,1.83-1.55,1.83h-2.747v3.118a8.878,8.878,0,0,0,2.057.145c.992,0,1.963-.034,2.881-.091l.1.112c-.245.882-.561,1.437-1.064,1.66a9.159,9.159,0,0,1-2.619.154,31.312,31.312,0,0,1-3.906-.176l-.315-.378Zm7.314-7.129c.117.205.124.3-.21.473-1.35.847-2.808,1.909-3.695,2.569a1.845,1.845,0,0,1-.731-.606c-.1-.113-.12-.3.171-.638a4.281,4.281,0,0,1,3-1.434c.62.145,1.187-.745,1.467-.364" transform="translate(-44.373 -10.39)" fill="#40a044"/><path d="M166.773,43.565c0-.894,0-1.363-.022-1.932a24.123,24.123,0,0,1,3.752-.31c3.254,0,4.928,1.245,4.928,3.46a3.263,3.263,0,0,1-1.931,2.862c.328.649.827,1.446,1.543,2.555.867,1.267,1.377,1.839,1.8,2.369l-.093.258a4.676,4.676,0,0,1-1.847.255,2.061,2.061,0,0,1-1.833-.868,30.569,30.569,0,0,1-2.031-3.238c-.385-.649-.655-.71-1.453-.647v4.13c0,.4-.138.472-.375.5-.612.055-2.059.062-2.487.075.051-.776.051-1.845.051-3.365Zm2.812,3.123a6.432,6.432,0,0,0,1.886-.138,1.8,1.8,0,0,0,1.054-1.663,1.88,1.88,0,0,0-2.049-1.893,4.207,4.207,0,0,0-.891.1Z" transform="translate(-50.141 -12.312)" fill="#40a044"/><path d="M188.639,43.775c0-1.146-.026-1.913-.065-2.3.361-.079,2.171-.153,2.532-.153.336,0,.4.178.4,1.04v8.251c0,1.251.057,1.87.081,2.269a18.794,18.794,0,0,1-2.482.153c-.317,0-.461-.051-.461-.376Z" transform="translate(-56.713 -12.313)" fill="#40a044"/><path d="M204.373,50.122c-.41.915-.885,2.126-1.081,2.551a.592.592,0,0,1-.648.364,14.384,14.384,0,0,1-2.221-.19l-.053-.2c1.009-2.267,4.052-8.714,4.842-10.607l-.106-.454a24.286,24.286,0,0,1,2.652-.26c.228,0,.332.095.444.352.982,2.207,2.329,5.649,2.964,7.115.839,2.03,1.319,3.038,1.653,3.759l-.039.27a10.617,10.617,0,0,1-2.238.218.8.8,0,0,1-.878-.583c-.361-.886-.629-1.54-.961-2.332ZM208.1,48.36c-.852-2.447-1.293-3.578-1.508-4.08-.494,1.212-.862,2.281-1.577,4.08Z" transform="translate(-60.26 -12.313)" fill="#40a044"/><path d="M228.229,43.257h-3.594c-.344,0-.5-.185-.41-.492a2.922,2.922,0,0,1,.784-1.441,17.362,17.362,0,0,0,2.906.1h7.416c-.159,1.2-.706,1.731-1.2,1.831h-3.038v7.41c0,1.272.052,1.893.079,2.254a18.585,18.585,0,0,1-2.542.153c-.3,0-.4-.068-.4-.338Z" transform="translate(-67.426 -12.313)" fill="#40a044"/><path d="M247.73,43.565c0-.894,0-1.363-.024-1.932a24.057,24.057,0,0,1,3.752-.31c3.256,0,4.925,1.245,4.925,3.46a3.262,3.262,0,0,1-1.93,2.862c.329.649.83,1.446,1.543,2.555.87,1.267,1.378,1.839,1.8,2.369l-.093.258a4.7,4.7,0,0,1-1.85.255,2.051,2.051,0,0,1-1.83-.868,30.284,30.284,0,0,1-2.036-3.238c-.385-.649-.656-.71-1.452-.647v4.13c0,.4-.134.472-.369.5-.62.055-2.062.062-2.49.075.052-.776.052-1.845.052-3.365Zm2.807,3.123a6.422,6.422,0,0,0,1.886-.138,1.794,1.794,0,0,0,1.05-1.663,1.878,1.878,0,0,0-2.043-1.893,4.251,4.251,0,0,0-.893.1Z" transform="translate(-74.488 -12.312)" fill="#40a044"/><path d="M269.593,43.775c0-1.146-.029-1.913-.066-2.3.362-.079,2.172-.153,2.531-.153.34,0,.4.178.4,1.04v8.251c0,1.251.054,1.87.081,2.269a18.789,18.789,0,0,1-2.482.153c-.313,0-.461-.051-.461-.376Z" transform="translate(-81.059 -12.313)" fill="#40a044"/><path d="M283.261,44.062c0-.876,0-1.5-.06-2.345.7-.073,1.655-.2,2.68-.249h4.766c-.129,1.153-.437,1.523-.71,1.694a5.989,5.989,0,0,1-1.842.137h-1.969v2.854h4.3c-.429,1.742-.856,1.829-1.55,1.829h-2.748V51.1a8.888,8.888,0,0,0,2.054.145c1,0,1.969-.034,2.884-.09l.1.112c-.245.882-.564,1.438-1.062,1.66a9.156,9.156,0,0,1-2.621.154,31.248,31.248,0,0,1-3.905-.176l-.32-.377Z" transform="translate(-85.171 -12.356)" fill="#40a044"/><path d="M307.782,44.432c0-1.21-.055-1.523-.08-2.076a18.744,18.744,0,0,1,3.467-.318c5.755,0,6.854,3.363,6.854,5.442A5.144,5.144,0,0,1,315.832,52a8.442,8.442,0,0,1-4.614,1.3,14.9,14.9,0,0,1-3.435-.435Zm1.167,7.684a7.687,7.687,0,0,0,2.169.27c3.033,0,5.578-1.278,5.578-4.814,0-2.658-1.68-4.615-5.707-4.615a20.453,20.453,0,0,0-2.04.145Z" transform="translate(-92.54 -12.525)" fill="#6b6d70"/><path d="M325.778,44.669a22.334,22.334,0,0,0-.074-2.251,7.637,7.637,0,0,1,.914-.242h5.2c-.126.506-.33.723-.609.823a8.041,8.041,0,0,1-1.787.1h-2.471v3.939h4.614a1.076,1.076,0,0,1-1.226.918h-3.388v4.234a9.894,9.894,0,0,0,2.194.192c.736,0,1.6,0,3.056-.07l.1.139a1.393,1.393,0,0,1-.66.7,8.457,8.457,0,0,1-2.093.145,27.674,27.674,0,0,1-3.463-.166l-.309-.365Z" transform="translate(-97.954 -12.566)" fill="#6b6d70"/><path d="M348.754,37.244l-.252-.8a3.49,3.49,0,0,1,1.145-.194c.258.607.687,1.62,1.557,3.647l3.843,9.166c2.09-4.881,4.228-9.645,5.354-12.111l-.055-.508a2.748,2.748,0,0,1,.893-.194c.155,0,.259.119.331.533l1.861,9.089c.51,2.539.917,4.331,1.224,5.491a2.884,2.884,0,0,1-.969.215c-.255,0-.327-.121-.382-.388-.359-1.448-.534-2.346-.89-4.228l-1.6-8.512c-1.174,2.682-3.467,8.027-5.277,12.328a.949.949,0,0,1-.41.51,1.757,1.757,0,0,1-.587.118c-.917-2.706-3.465-8.751-5.093-12.784-.691,4.009-2.167,10.487-2.572,12.567-.1.291-.2.388-.386.388a1.779,1.779,0,0,1-.867-.215c.538-2.278,1.913-8.78,3.134-14.122" transform="translate(-103.944 -10.802)" fill="#6b6d70"/><path d="M381.146,41.831c4.565,0,6.14,3.341,6.14,5.658a5.617,5.617,0,0,1-6.012,5.9c-4.589,0-6.067-3.214-6.067-5.772a5.536,5.536,0,0,1,2.27-4.549,6.053,6.053,0,0,1,3.647-1.234Zm-.078.918c-2.749.047-4.535,2.1-4.535,5a4.493,4.493,0,0,0,4.637,4.716c2.756,0,4.793-1.547,4.793-4.907a4.556,4.556,0,0,0-4.868-4.814Z" transform="translate(-112.842 -12.464)" fill="#6b6d70"/><path d="M395.547,43.1l-.664-.82v-.1a4.788,4.788,0,0,1,.922-.147c.148,0,.306.1.508.319.639.625,3.033,3.426,5.58,6.162.949,1.021,1.863,2.1,2.524,2.827-.079-1.111-.055-1.789-.055-2.972V42.594c0-.385.08-.46.334-.484a4.2,4.2,0,0,1,.84-.073c-.024.75-.05,1.765-.05,3.243v7.753a1.224,1.224,0,0,1-.636.221c-.2,0-.359-.122-.665-.483-1.173-1.353-3.386-3.722-5.581-6.213-.579-.7-1.27-1.549-2.035-2.395.1,2.083.1,3,.1,3.917V52.7c0,.388-.127.432-.509.506a2.365,2.365,0,0,1-.659.048c.045-.75.045-1.762.045-3.237Z" transform="translate(-118.759 -12.525)" fill="#6b6d70"/><path d="M417.145,43.055h-3.689c-.337,0-.487-.147-.308-.414a2.394,2.394,0,0,1,.613-.6,15.716,15.716,0,0,0,2.7.1H422.6c-.024.242-.278.823-.537.92h-3.743v7.929c0,1.229.051,1.813.08,2.126a4.893,4.893,0,0,1-.973.145c-.2,0-.28-.093-.28-.291Z" transform="translate(-124.229 -12.525)" fill="#6b6d70"/><path d="M429.7,44.19c0-.871,0-1.3-.024-1.958a17.778,17.778,0,0,1,2.341-.194c1.934,0,4.18.75,4.18,3.119a3.3,3.3,0,0,1-2.089,2.976c.277.437.765,1.088,1.529,2.053a15.4,15.4,0,0,0,2.544,2.757v.091a1.5,1.5,0,0,1-.94.271,1.548,1.548,0,0,1-1.15-.7c-.633-.725-1.247-1.471-2.5-3.116-.74-.993-.892-1.137-2.726-1.04V52.7c0,.388-.077.432-.354.482a6.733,6.733,0,0,1-.866.072c.05-.75.05-1.761.05-3.213Zm1.171,3.316a15.369,15.369,0,0,0,2.319-.052,2.247,2.247,0,0,0,1.732-2.2c0-1.718-1.559-2.3-2.8-2.3a7.712,7.712,0,0,0-1.25.1Z" transform="translate(-129.216 -12.525)" fill="#6b6d70"/><path d="M444.083,42.617a21.355,21.355,0,0,0-.078-2.251,7.5,7.5,0,0,1,.918-.242h5.2c-.127.506-.328.724-.61.823a8.083,8.083,0,0,1-1.789.1h-2.469v3.939h4.612a1.068,1.068,0,0,1-1.219.918h-3.393v4.234a9.909,9.909,0,0,0,2.194.192c.737,0,1.6,0,3.056-.071l.1.139a1.388,1.388,0,0,1-.668.7,8.4,8.4,0,0,1-2.089.145,27.667,27.667,0,0,1-3.461-.166l-.306-.365Zm5.856-6.7c.081.144.055.265-.2.383A37.912,37.912,0,0,0,446.6,38.7a3.07,3.07,0,0,1-.278-.46c-.076-.095-.029-.241.258-.527a13.882,13.882,0,0,1,2.622-2.42,2.092,2.092,0,0,1,.735.631" transform="translate(-133.532 -10.515)" fill="#6b6d70"/><path d="M457.321,49.539c-.883,1.738-1.474,2.993-1.7,3.456-.106.213-.229.26-.337.26a3.006,3.006,0,0,1-.917-.093l-.047-.2c1.325-2.416,4.685-9.139,5.119-10.077l-.226-.633a2.089,2.089,0,0,1,.839-.216c.18,0,.28.072.536.651.71,1.721,2.343,5.392,3.16,7.038.738,1.6,1.349,2.731,1.577,3.143v.189a2.662,2.662,0,0,1-.919.2c-.2,0-.434-.166-.61-.583-.378-.819-.663-1.4-1.476-3.134Zm4.618-.924c-.967-2.178-1.709-3.846-1.989-4.45-.868,1.811-1.351,2.83-2.119,4.45Z" transform="translate(-136.634 -12.525)" fill="#6b6d70"/><path d="M472.566,44.477a19.71,19.71,0,0,0-.1-2.292,7.008,7.008,0,0,1,.963-.147c.231,0,.308.194.308,1.018v9.14a21.27,21.27,0,0,0,2.774.143c.693,0,1.863,0,2.474-.045l.073.165a2.274,2.274,0,0,1-.759.7,11.83,11.83,0,0,1-2.217.094,25.014,25.014,0,0,1-3.212-.145l-.306-.385Z" transform="translate(-142.092 -12.525)" fill="#6b6d70"/></g></svg>