<svg width="80" height="85" xmlns="http://www.w3.org/2000/svg" xmlns:xlink="http://www.w3.org/1999/xlink" xml:space="preserve" overflow="hidden"><g transform="translate(-599 -366)"><path d="M49.0508 14.0625C52.0552 14.0715 54.5408 16.4031 54.7417 19.4008L54.82 20.5933 55.9742 20.9025 56.1183 20.9425C58.9411 21.7878 60.5463 24.7592 59.7058 27.5833L59.3042 28.9333 60.5675 29.555C60.7342 29.6383 60.905 29.73 61.0675 29.8283 64.2791 31.7667 65.3161 35.9386 63.3858 39.155L62.7025 40.29 63.6542 41.2117C66.501 43.9741 66.5693 48.5213 63.8069 51.3681 63.1861 52.0079 62.4515 52.5266 61.6408 52.8975L60.6675 53.3425 60.6675 54.4875C60.6786 58.0414 57.8066 60.9315 54.2526 60.9426 53.7787 60.944 53.3061 60.8932 52.8433 60.7908L51.3533 60.4642 50.8958 61.9167C50.256 63.956 48.0841 65.0904 46.0448 64.4506 44.4313 63.9443 43.3334 62.4492 43.3333 60.7583L43.3333 19.7817C43.3352 16.7736 45.6656 14.2804 48.6667 14.0758 48.7942 14.0667 48.9217 14.0625 49.0475 14.0625M49.0475 12.3958C48.8853 12.3958 48.7219 12.4014 48.5575 12.4125 44.6767 12.6691 41.6617 15.8942 41.6667 19.7833L41.6667 60.7583C41.6672 63.816 44.1457 66.2946 47.2033 66.295L47.2033 66.295C49.6225 66.2948 51.7616 64.7246 52.4867 62.4167 56.8629 63.3749 61.1874 60.604 62.1456 56.2277 62.2712 55.6545 62.3341 55.0693 62.3333 54.4825L62.3333 54.4092C66.7772 52.3763 68.7318 47.1258 66.6989 42.6819 66.2415 41.6821 65.6017 40.7762 64.8125 40.0108 67.2221 36.0067 65.9302 30.8073 61.9267 28.3967 61.7233 28.275 61.515 28.1608 61.3025 28.0558 62.408 24.3512 60.301 20.4519 56.5964 19.3465 56.5957 19.3462 56.5949 19.3461 56.5942 19.3458 56.5308 19.3267 56.4675 19.3092 56.4042 19.2925 56.1506 15.4161 52.9347 12.4002 49.05 12.3958Z" fill="#FFFFFF" transform="matrix(1 0 0 1.0625 599 366)"/><path d="M30.9533 14.0658C34.1082 14.0709 36.6639 16.6284 36.6667 19.7833L36.6667 60.755C36.6637 62.8919 34.929 64.6217 32.7921 64.6188 31.1055 64.6163 29.6147 63.5218 29.1075 61.9133L28.6492 60.4617 27.1617 60.7875C26.7059 60.8873 26.2407 60.9377 25.7742 60.9375 22.2152 60.9357 19.3315 58.049 19.3333 54.49 19.3333 54.4875 19.3333 54.485 19.3333 54.4825L19.3333 53.3383 18.3592 52.8933C14.7523 51.2467 13.1633 46.9878 14.81 43.381 15.1815 42.5672 15.7018 41.8301 16.3442 41.2075L17.295 40.2858 16.6117 39.1517C16.5133 38.985 16.4208 38.8183 16.3367 38.6517 14.6822 35.2834 16.0677 31.2116 19.4333 29.5517L20.695 28.93 20.2942 27.5833C20.28 27.535 20.2658 27.4867 20.2525 27.4367 19.4949 24.5909 21.183 21.6687 24.0267 20.9033L25.1808 20.595 25.2592 19.4033C25.4643 16.4071 27.9501 14.0788 30.9533 14.07M30.9533 12.4033 30.9533 12.4033C27.0692 12.4055 23.8521 15.4192 23.5967 19.295 19.8619 20.2936 17.6437 24.1308 18.6424 27.8656 18.6427 27.8668 18.643 27.868 18.6433 27.8692 18.66 27.9333 18.6783 27.9967 18.6975 28.06 14.5065 30.1253 12.7823 35.1964 14.8458 39.3883 14.9508 39.6027 15.065 39.8117 15.1883 40.015 11.6812 43.4162 11.5953 49.0163 14.9965 52.5234 15.7617 53.3124 16.6672 53.9519 17.6667 54.4092L17.6667 54.4825C17.6616 58.9626 21.2891 62.5987 25.7692 62.6042L25.7792 62.6042C26.3628 62.6041 26.9448 62.5409 27.515 62.4158 28.4293 65.3333 31.5356 66.9572 34.453 66.0428 36.7626 65.319 38.3342 63.1787 38.3333 60.7583L38.3333 19.7833C38.3342 15.7064 35.0303 12.4006 30.9533 12.3992Z" fill="#FFFFFF" transform="matrix(1 0 0 1.0625 599 366)"/><path d="M15.9392 18.0525C15.7206 18.0516 15.5111 17.9647 15.3558 17.8108L11.3992 13.885C11.0669 13.5665 11.0558 13.039 11.3743 12.7067 11.6928 12.3745 12.2203 12.3634 12.5526 12.6819 12.5593 12.6883 12.566 12.695 12.5725 12.7017L16.5292 16.6275C16.8559 16.9516 16.8581 17.4792 16.534 17.806 16.3784 17.9629 16.1668 18.0516 15.9458 18.0525Z" fill="#FFFFFF" transform="matrix(1 0 0 1.0625 599 366)"/><path d="M10.545 28.7133C10.4333 28.7131 10.3227 28.6904 10.22 28.6467L4.53833 26.235C4.11716 26.0494 3.92615 25.5576 4.11171 25.1364 4.29366 24.7234 4.77132 24.5303 5.18917 24.7008L10.8708 27.1125C11.2948 27.2917 11.493 27.7807 11.3137 28.2047 11.1831 28.5134 10.8802 28.7138 10.545 28.7133Z" fill="#FFFFFF" transform="matrix(1 0 0 1.0625 599 366)"/><path d="M7.95 40.455 2.04 40.455C1.57977 40.455 1.20667 40.0819 1.20667 39.6217 1.20667 39.1614 1.57977 38.7883 2.04 38.7883L7.95 38.7883C8.41025 38.7883 8.78333 39.1614 8.78333 39.6217 8.78333 40.0819 8.41025 40.455 7.95 40.455Z" fill="#FFFFFF" transform="matrix(1 0 0 1.0625 599 366)"/><path d="M3.6025 55.0542C3.14227 55.0546 2.76887 54.6818 2.76849 54.2215 2.76822 53.8932 2.96066 53.5955 3.26 53.4608L8.10333 51.28C8.51983 51.0843 9.01625 51.2632 9.212 51.6797 9.40775 52.0963 9.22875 52.5927 8.81217 52.7884 8.80433 52.7921 8.79633 52.7957 8.78833 52.7992L3.945 54.98C3.83738 55.0287 3.72063 55.054 3.6025 55.0542Z" fill="#FFFFFF" transform="matrix(1 0 0 1.0625 599 366)"/><path d="M11.6942 67.0192C11.2339 67.0187 10.8612 66.6453 10.8615 66.1851 10.8617 65.9577 10.9548 65.7404 11.1192 65.5833L14.8458 62.0267C15.1788 61.7079 15.7071 61.7195 16.0258 62.0525 16.3446 62.3855 16.333 62.9137 16 63.2325L12.2733 66.7892C12.1172 66.9378 11.9097 67.0202 11.6942 67.0192Z" fill="#FFFFFF" transform="matrix(1 0 0 1.0625 599 366)"/><path d="M28.47 39.2758 27.5533 38.305C27.4092 38.2975 27.265 38.2825 27.1217 38.2625L26.0383 39.0283 24.0833 37.9758 24.1325 36.6325C24.0375 36.5258 23.9475 36.4147 23.8625 36.2992L22.5525 36.0775 21.9117 33.9583 22.8817 33.0417C22.8892 32.8983 22.9033 32.7567 22.9233 32.615L22.1433 31.5217 23.2067 29.5633 24.54 29.6033C24.6492 29.5083 24.7625 29.4167 24.88 29.3308L25.1067 28.0242 27.2225 27.3833 28.1392 28.3467C28.2842 28.355 28.4283 28.3692 28.5725 28.39L29.6608 27.6267 31.6117 28.6758 31.5708 30.0092C31.6669 30.1169 31.7577 30.2281 31.8433 30.3425L33.1542 30.565 33.795 32.6858 32.8225 33.6025C32.8133 33.7517 32.7975 33.9 32.7758 34.0475L33.54 35.1308 32.4817 37.0833 31.1542 37.0442C31.0431 37.1414 30.9302 37.2339 30.8158 37.3217L30.5833 38.635ZM28.2758 36.6375 28.9758 37.3808 29.1217 37.3375 29.2967 36.3292 29.6092 36.1317C29.8344 35.989 30.0412 35.8191 30.225 35.6258L30.4817 35.3567 31.5017 35.3875 31.575 35.2517 30.985 34.4183 31.0683 34.0525C31.129 33.79 31.157 33.521 31.1517 33.2517L31.1458 32.8833 31.8875 32.1858 31.8442 32.0417 30.8358 31.875 30.6375 31.5592C30.4963 31.3344 30.3284 31.1277 30.1375 30.9433L29.87 30.6867 29.9017 29.6617 29.7642 29.5875 28.9308 30.1708 28.5717 30.0875C28.3119 30.0276 28.0456 30.0012 27.7792 30.0092L27.4108 30.0167 26.7125 29.2792 26.5658 29.3233 26.39 30.3375 26.07 30.535C25.844 30.6742 25.6361 30.8407 25.4508 31.0308L25.195 31.2933 24.1767 31.2633 24.1 31.4042 24.6942 32.2375 24.6108 32.5992C24.5534 32.8596 24.5274 33.1259 24.5333 33.3925L24.5417 33.7633 23.7975 34.4642 23.8408 34.6075 24.8475 34.7742 25.0467 35.09C25.1875 35.3149 25.3554 35.5217 25.5467 35.7058L25.8158 35.965 25.7858 37 25.92 37.0725 26.7533 36.485 27.1142 36.5683C27.3732 36.6292 27.6391 36.6558 27.905 36.6475Z" fill="#FFFFFF" transform="matrix(1 0 0 1.0625 599 366)"/><path d="M27.85 31.8033C27.7013 31.8034 27.5532 31.8252 27.4108 31.8683L27.4108 31.8683C26.605 32.1115 26.1488 32.962 26.392 33.7678 26.6352 34.5737 27.4857 35.0298 28.2916 34.7867 29.0974 34.5435 29.5536 33.693 29.3103 32.8872 29.1161 32.2435 28.5232 31.8032 27.8508 31.8033Z" fill="#FFFFFF" transform="matrix(1 0 0 1.0625 599 366)"/><path d="M26.1667 51.5783 25.25 50.6075C25.1058 50.5992 24.9617 50.585 24.8183 50.5642L23.735 51.3308 21.7808 50.2775 21.83 48.935C21.7342 48.8283 21.6442 48.7167 21.5583 48.6017L20.2492 48.38 19.6083 46.26 20.5783 45.3433C20.5858 45.2 20.6 45.0575 20.62 44.9158L19.8333 43.8267 20.8975 41.8692 22.2308 41.9092C22.3392 41.8133 22.4533 41.7225 22.57 41.6367L22.7975 40.3292 24.9125 39.6883 25.825 40.6517C25.97 40.66 26.1142 40.675 26.2583 40.695L27.3467 39.9317 29.2967 40.9817 29.2567 42.315C29.3528 42.4227 29.4436 42.5339 29.5292 42.6483L30.84 42.87 31.4808 44.9908 30.5083 45.9075C30.4989 46.0569 30.4831 46.2052 30.4608 46.3525L31.225 47.4358 30.175 49.3883 28.8475 49.3483C28.7392 49.4458 28.6258 49.5383 28.5092 49.6258L28.2808 50.9383ZM25.9717 48.9392 26.6717 49.6833 26.8167 49.6392 26.9917 48.6308 27.3042 48.4333C27.5298 48.2903 27.7371 48.1205 27.9217 47.9275L28.1783 47.6592 29.1975 47.69 29.2708 47.5533 28.6808 46.72 28.7642 46.3542C28.8248 46.0917 28.8528 45.8227 28.8475 45.5533L28.8417 45.1858 29.5833 44.4875 29.54 44.3433 28.5317 44.1767 28.3333 43.8575C28.1927 43.6326 28.0248 43.426 27.8333 43.2425L27.5667 42.9858 27.5975 41.9608 27.46 41.8867 26.6267 42.47 26.2675 42.3867C26.0082 42.3261 25.742 42.2995 25.4758 42.3075L25.1067 42.315 24.4092 41.5775 24.2617 41.6225 24.0858 42.635 23.7675 42.8325C23.5405 42.9733 23.3314 43.1412 23.145 43.3325L22.8892 43.5933 21.8733 43.5633 21.7958 43.7042 22.39 44.5375 22.3067 44.8992C22.2494 45.1596 22.2231 45.4259 22.2283 45.6925L22.2375 46.0633 21.4933 46.765 21.5367 46.9083 22.5433 47.075 22.7425 47.3908C22.8835 47.6154 23.0514 47.822 23.2425 48.0058L23.5117 48.265 23.4742 49.2967 23.6075 49.3683 24.4408 48.785 24.8017 48.8683C25.0606 48.9298 25.3265 48.9565 25.5925 48.9475Z" fill="#FFFFFF" transform="matrix(1 0 0 1.0625 599 366)"/><path d="M25.5433 44.105C25.3946 44.1055 25.2467 44.1273 25.1042 44.17L25.1042 44.17C24.3002 44.4145 23.8466 45.2646 24.0911 46.0686 24.3356 46.8726 25.1857 47.3262 25.9897 47.0817 26.7937 46.8372 27.2472 45.9871 27.0028 45.1831 26.8076 44.5412 26.215 44.1029 25.5442 44.1042Z" fill="#FFFFFF" transform="matrix(1 0 0 1.0625 599 366)"/></g></svg>